<?xml version="1.0" encoding="UTF-8"?><svg id="a" xmlns="http://www.w3.org/2000/svg" width="24" height="24" viewBox="0 0 24 24"><rect width="24" height="24" fill="none"/><g><path d="M9.39,10.23c.22,0,.44-.08,.6-.25,.33-.33,.33-.87,0-1.2l-.11-.11c-.33-.33-.87-.33-1.2,0-.33,.33-.33,.87,0,1.2l.11,.11c.17,.17,.38,.25,.6,.25Z" fill="#ff6960"/><path d="M14.92,13.7c-.33-.33-.87-.33-1.2,0s-.33,.87,0,1.2l.11,.11c.17,.17,.38,.25,.6,.25s.44-.08,.6-.25c.33-.33,.33-.87,0-1.2l-.11-.11Z" fill="#ff6960"/><path d="M17.43,16.21c-.33-.33-.87-.33-1.2,0s-.33,.87,0,1.2l.11,.11c.17,.17,.38,.25,.6,.25s.44-.08,.6-.25c.33-.33,.33-.87,0-1.2l-.11-.11Z" fill="#ff6960"/><path d="M6.88,7.72c.22,0,.44-.08,.6-.25,.33-.33,.33-.87,0-1.2l-.11-.11c-.33-.33-.87-.33-1.2,0-.33,.33-.33,.87,0,1.2l.11,.11c.17,.17,.38,.25,.6,.25Z" fill="#ff6960"/><path d="M4.37,5.21c.22,0,.43-.08,.6-.25,.33-.33,.33-.87,0-1.2l-.11-.11c-.33-.33-.87-.34-1.2,0-.33,.33-.33,.87,0,1.2l.11,.11c.17,.17,.38,.25,.6,.25Z" fill="#ff6960"/><path d="M1.85,2.69c.22,0,.44-.08,.6-.25,.33-.33,.33-.87,0-1.2l-.11-.11c-.33-.33-.87-.33-1.2,0-.33,.33-.33,.87,0,1.2l.11,.11c.17,.17,.38,.25,.6,.25Z" fill="#ff6960"/><path d="M22.46,21.24c-.33-.33-.87-.33-1.2,0s-.33,.87,0,1.2l.11,.11c.17,.17,.38,.25,.6,.25s.44-.08,.6-.25c.33-.33,.33-.87,0-1.2l-.11-.11Z" fill="#ff6960"/><path d="M19.95,18.73c-.33-.33-.87-.33-1.2,0-.33,.33-.34,.87,0,1.2l.11,.11c.17,.17,.39,.25,.6,.25s.43-.08,.6-.25c.33-.33,.34-.87,0-1.2l-.11-.11Z" fill="#ff6960"/><path d="M4.11,18.73l-.11,.11c-.33,.33-.33,.87,0,1.2,.17,.17,.38,.25,.6,.25s.44-.08,.6-.25l.11-.11c.33-.33,.33-.87,0-1.2-.33-.33-.87-.33-1.2,0Z" fill="#ff6960"/><path d="M22.91,1.13c-.33-.33-.87-.33-1.2,0l-.11,.11c-.33,.33-.33,.87,0,1.2,.17,.17,.38,.25,.6,.25s.44-.08,.6-.25l.11-.11c.33-.33,.33-.87,0-1.2Z" fill="#ff6960"/><path d="M19.19,3.65l-.11,.11c-.33,.33-.33,.87,0,1.2,.17,.17,.38,.25,.6,.25s.44-.08,.6-.25l.11-.11c.33-.33,.33-.87,0-1.2-.33-.33-.87-.33-1.2,0Z" fill="#ff6960"/><path d="M14.16,8.68l-.11,.11c-.33,.33-.33,.87,0,1.2,.17,.16,.38,.25,.6,.25s.44-.08,.6-.25l.11-.11c.33-.33,.33-.87,0-1.2s-.87-.33-1.2,0Z" fill="#ff6960"/><path d="M1.59,21.24l-.11,.11c-.33,.33-.33,.87,0,1.2,.17,.17,.38,.25,.6,.25s.44-.08,.6-.25l.11-.11c.33-.33,.33-.87,0-1.2-.33-.33-.87-.33-1.2,0Z" fill="#ff6960"/><path d="M16.67,6.16l-.11,.11c-.33,.33-.33,.87,0,1.2,.17,.17,.38,.25,.6,.25s.44-.08,.6-.25l.11-.11c.33-.33,.33-.87,0-1.2-.33-.33-.87-.33-1.2,0Z" fill="#ff6960"/><path d="M12.02,10.98c-.29-.08-.6-.02-.83,.21-.33,.33-.33,.87,0,1.2l.11,.11c.17,.17,.38,.25,.6,.25,.04,0,.08-.02,.12-.02,.04,0,.08,.02,.12,.02,.22,0,.44-.08,.6-.25l.11-.11c.33-.33,.33-.87,0-1.2-.22-.23-.54-.28-.83-.21Z" fill="#ff6960"/><path d="M9.13,13.7l-.11,.11c-.33,.33-.33,.87,0,1.2,.17,.17,.38,.25,.6,.25s.44-.08,.6-.25l.11-.11c.33-.33,.33-.87,0-1.2-.33-.33-.87-.33-1.2,0Z" fill="#ff6960"/><path d="M6.62,16.21l-.11,.11c-.33,.33-.33,.87,0,1.2,.17,.17,.38,.25,.6,.25s.44-.08,.6-.25l.11-.11c.33-.33,.33-.87,0-1.2-.33-.33-.87-.33-1.2,0Z" fill="#ff6960"/></g></svg>