<?xml version="1.0" encoding="UTF-8"?>
<svg xmlns="http://www.w3.org/2000/svg" viewBox="0 0 31.95 71.02">
  <g id="a" data-name="Layer 1"/>
  <g id="b" data-name="Layer 2">
    <g id="c" data-name="Template">
      <g>
        <path d="M29.33,49.31c0,.51-.1,1.02-.31,1.52,0,.02-.1,.23-.11,.25-.9,2.05-3.28,2.98-5.33,2.09-2.05-.9-2.98-3.29-2.09-5.34,.89-2.04,3.3-3.07,5.35-2.2,1.54,.66,2.49,2.12,2.49,3.67Z" style="fill: #ff6960;"/>
        <path d="M29.32,21.67c0,1.62-.98,3.15-2.58,3.78-2.08,.81-4.43-.22-5.25-2.3-.8-2.06,.15-4.47,2.19-5.31s4.34,0,5.22,2.03c.02,.05,.12,.29,.14,.33,.19,.48,.28,.98,.28,1.47Z" style="fill: #ff6960;"/>
        <path d="M20.93,60.73c0,1.11-.46,2.2-1.39,2.98-.03,.03-.23,.19-.26,.21-1.75,1.39-4.3,1.1-5.69-.66-1.39-1.75-1.1-4.3,.66-5.69,1.73-1.37,4.33-1.17,5.73,.54,.63,.77,.95,1.7,.95,2.61Z" style="fill: #ff6960;"/>
        <path d="M20.86,10.35c0,.88-.28,1.77-.87,2.51-1.39,1.74-3.89,2.06-5.64,.67-1.75-1.39-2.13-4-.74-5.76,1.39-1.75,3.86-2.11,5.61-.72,.01,0,.11,.08,.12,.09,1,.81,1.52,2.01,1.52,3.21Z" style="fill: #ff6960;"/>
        <path d="M31.95,35.47c0,2.24-1.76,4.05-4,4.05h-.1c-2.24,0-4.05-1.81-4.05-4.05s1.81-4.05,4.05-4.05,4.1,1.81,4.1,4.05Z" style="fill: #ff6960;"/>
        <path d="M8.15,66.97c0,2.24-1.76,4.05-4,4.05h-.1c-2.24,0-4.05-1.81-4.05-4.05s1.81-4.05,4.05-4.05,4.1,1.81,4.1,4.05Z" style="fill: #ff6960;"/>
        <path d="M8.25,4.1c0,.35-.05,.7-.14,1.05-.58,2.16-2.8,3.44-4.96,2.86C.97,7.49-.41,5.29,.11,3.11,.64,.94,2.78-.41,4.95,.11l.3,.08c1.81,.49,3,2.12,3,3.91Z" style="fill: #ff6960;"/>
      </g>
    </g>
  </g>
</svg>