<?xml version="1.0" encoding="utf-8"?>
<!-- Generator: Adobe Illustrator 15.0.0, SVG Export Plug-In  -->
<!DOCTYPE svg PUBLIC "-//W3C//DTD SVG 1.1//EN" "http://www.w3.org/Graphics/SVG/1.1/DTD/svg11.dtd" [
	<!ENTITY ns_flows "http://ns.adobe.com/Flows/1.0/">
]>
<svg version="1.1"
	 xmlns="http://www.w3.org/2000/svg" xmlns:xlink="http://www.w3.org/1999/xlink" xmlns:a="http://ns.adobe.com/AdobeSVGViewerExtensions/3.0/"
	 x="0px" y="0px" width="32px" height="72px" viewBox="-0.025 0.043 32 72"
	 overflow="visible" enable-background="new -0.025 0.043 32 72" xml:space="preserve">
<defs>
</defs>
<path fill="#FFFFFF" d="M29.327,49.305c0,0.506-0.1,1.02-0.312,1.523c-0.008,0.018-0.096,0.23-0.104,0.248
	c-0.898,2.049-3.285,2.982-5.336,2.088c-2.047-0.898-2.982-3.289-2.086-5.336c0.891-2.037,3.301-3.07,5.346-2.197
	C28.379,46.293,29.327,47.749,29.327,49.305"/>
<path fill="#FFFFFF" d="M29.323,21.67c0,1.622-0.979,3.15-2.578,3.775c-2.084,0.814-4.434-0.215-5.246-2.299
	c-0.807-2.063,0.146-4.472,2.186-5.314s4.34,0.008,5.221,2.032c0.02,0.046,0.121,0.286,0.139,0.335
	C29.233,20.681,29.323,21.181,29.323,21.67"/>
<path fill="#FFFFFF" d="M20.932,60.727c0,1.107-0.463,2.195-1.389,2.979c-0.033,0.027-0.227,0.188-0.262,0.215
	c-1.754,1.389-4.301,1.096-5.691-0.658c-1.387-1.752-1.096-4.301,0.659-5.691c1.734-1.373,4.329-1.168,5.731,0.543
	C20.614,58.885,20.932,59.815,20.932,60.727"/>
<path fill="#FFFFFF" d="M20.86,10.353c0,0.883-0.285,1.77-0.875,2.507c-1.395,1.737-3.891,2.056-5.637,0.671
	c-1.754-1.388-2.13-4-0.74-5.756c1.389-1.753,3.855-2.112,5.611-0.722c0.012,0.008,0.105,0.083,0.117,0.093
	C20.333,7.956,20.86,9.152,20.86,10.353"/>
<path fill="#FFFFFF" d="M31.95,35.465c0,2.238-1.76,4.051-3.998,4.051h-0.104c-2.238,0-4.053-1.812-4.053-4.051
	c0-2.237,1.814-4.051,4.053-4.051C30.084,31.415,31.95,33.229,31.95,35.465"/>
<path fill="#FFFFFF" d="M8.154,66.967c0,2.236-1.761,4.051-3.998,4.051H4.051C1.813,71.018,0,69.204,0,66.967
	c0-2.238,1.813-4.051,4.051-4.051C6.29,62.917,8.154,64.729,8.154,66.967"/>
<path fill="#FFFFFF" d="M8.251,4.099c0,0.348-0.046,0.7-0.14,1.054C7.53,7.312,5.308,8.595,3.147,8.014
	C0.974,7.487-0.415,5.287,0.112,3.109C0.64,0.936,2.777-0.413,4.951,0.114L5.25,0.188C7.059,0.675,8.251,2.312,8.251,4.099"/>
</svg>
