<?xml version="1.0" encoding="UTF-8"?><svg id="a" xmlns="http://www.w3.org/2000/svg" width="24" height="24" viewBox="0 0 24 24"><rect width="24" height="24" fill="none"/><g><path d="M12.1,.16h-.15c-.47,0-.85,.38-.85,.85s.38,.85,.85,.85h.15c.47,0,.85-.38,.85-.85s-.38-.85-.85-.85Z" fill="#ff6960"/><path d="M15.66,.16h-.15c-.47,0-.85,.38-.85,.85s.38,.85,.85,.85h.15c.47,0,.85-.38,.85-.85s-.38-.85-.85-.85Z" fill="#ff6960"/><path d="M8.55,.16h-.15c-.47,0-.85,.38-.85,.85s.38,.85,.85,.85h.15c.47,0,.85-.38,.85-.85s-.38-.85-.85-.85Z" fill="#ff6960"/><path d="M1.44,.16h-.15C.81,.16,.43,.54,.43,1.01s.38,.85,.85,.85h.15c.47,0,.85-.38,.85-.85S1.91,.16,1.44,.16Z" fill="#ff6960"/><path d="M4.99,.16h-.15c-.47,0-.85,.38-.85,.85s.38,.85,.85,.85h.15c.47,0,.85-.38,.85-.85s-.38-.85-.85-.85Z" fill="#ff6960"/><path d="M19.21,.16h-.15c-.47,0-.85,.38-.85,.85s.38,.85,.85,.85h.15c.47,0,.85-.38,.85-.85s-.38-.85-.85-.85Z" fill="#ff6960"/><path d="M22.61,1.86h.15c.47,0,.85-.38,.85-.85s-.38-.85-.85-.85h-.15c-.47,0-.85,.38-.85,.85s.38,.85,.85,.85Z" fill="#ff6960"/><path d="M8.55,11.16h-.15c-.47,0-.85,.38-.85,.85s.38,.85,.85,.85h.15c.47,0,.85-.38,.85-.85s-.38-.85-.85-.85Z" fill="#ff6960"/><path d="M12.1,11.16h-.15c-.47,0-.85,.38-.85,.85s.38,.85,.85,.85h.15c.47,0,.85-.38,.85-.85s-.38-.85-.85-.85Z" fill="#ff6960"/><path d="M19.21,11.16h-.15c-.47,0-.85,.38-.85,.85s.38,.85,.85,.85h.15c.47,0,.85-.38,.85-.85s-.38-.85-.85-.85Z" fill="#ff6960"/><path d="M4.99,11.16h-.15c-.47,0-.85,.38-.85,.85s.38,.85,.85,.85h.15c.47,0,.85-.38,.85-.85s-.38-.85-.85-.85Z" fill="#ff6960"/><path d="M1.44,11.16h-.15c-.47,0-.85,.38-.85,.85s.38,.85,.85,.85h.15c.47,0,.85-.38,.85-.85s-.38-.85-.85-.85Z" fill="#ff6960"/><path d="M15.66,11.16h-.15c-.47,0-.85,.38-.85,.85s.38,.85,.85,.85h.15c.47,0,.85-.38,.85-.85s-.38-.85-.85-.85Z" fill="#ff6960"/><path d="M22.76,11.16h-.15c-.47,0-.85,.38-.85,.85s.38,.85,.85,.85h.15c.47,0,.85-.38,.85-.85s-.38-.85-.85-.85Z" fill="#ff6960"/><path d="M1.44,22.16h-.15c-.47,0-.85,.38-.85,.85s.38,.85,.85,.85h.15c.47,0,.85-.38,.85-.85s-.38-.85-.85-.85Z" fill="#ff6960"/><path d="M4.99,22.16h-.15c-.47,0-.85,.38-.85,.85s.38,.85,.85,.85h.15c.47,0,.85-.38,.85-.85s-.38-.85-.85-.85Z" fill="#ff6960"/><path d="M22.76,22.16h-.15c-.47,0-.85,.38-.85,.85s.38,.85,.85,.85h.15c.47,0,.85-.38,.85-.85s-.38-.85-.85-.85Z" fill="#ff6960"/><path d="M8.55,22.16h-.15c-.47,0-.85,.38-.85,.85s.38,.85,.85,.85h.15c.47,0,.85-.38,.85-.85s-.38-.85-.85-.85Z" fill="#ff6960"/><path d="M19.21,22.16h-.15c-.47,0-.85,.38-.85,.85s.38,.85,.85,.85h.15c.47,0,.85-.38,.85-.85s-.38-.85-.85-.85Z" fill="#ff6960"/><path d="M12.1,22.16h-.15c-.47,0-.85,.38-.85,.85s.38,.85,.85,.85h.15c.47,0,.85-.38,.85-.85s-.38-.85-.85-.85Z" fill="#ff6960"/><path d="M15.66,22.16h-.15c-.47,0-.85,.38-.85,.85s.38,.85,.85,.85h.15c.47,0,.85-.38,.85-.85s-.38-.85-.85-.85Z" fill="#ff6960"/></g></svg>