<?xml version="1.0" encoding="UTF-8"?><svg id="a" xmlns="http://www.w3.org/2000/svg" width="89.12" height="42.75" viewBox="0 0 89.12 42.75"><g><path d="M43.41,6.05V.68h1.53V6.13c0,1.47,.9,2.49,2.24,2.49s2.24-.94,2.24-2.49V.68h1.52V6.05c0,2.31-1.47,3.92-3.75,3.92s-3.77-1.54-3.77-3.92Z" fill="#fff" stroke="#fff" stroke-width=".1"/><path d="M58.86,6.22v3.63h-1.51v-3.55c0-1.18-.6-1.82-1.48-1.82-.78,0-1.57,.6-1.57,1.71v3.67h-1.51V3.32h1.43v.82c.49-.62,1.22-.94,2.02-.94,1.62,0,2.61,1.19,2.61,3.03Z" fill="#fff" stroke="#fff" stroke-width=".1"/><path d="M60.59,1.38c0-.57,.44-1.04,1-1.04s1,.48,1,1.04-.44,1.05-1,1.05-1-.49-1-1.05Zm.19,8.46V3.32h1.52v6.53h-1.52Z" fill="#fff" stroke="#fff" stroke-width=".1"/><path d="M64.61,7.62v-3.08h-.98v-1.23h1.03v-1.12l1.46-.94V3.32h2.27v1.23h-2.27v3.13c0,.78,.43,1.09,.92,1.09,.45,0,.82-.1,1.24-.44l.23,1.14c-.53,.38-1.12,.5-1.76,.5-1.21,0-2.13-.77-2.13-2.35Z" fill="#fff" stroke="#fff" stroke-width=".1"/><path d="M75.53,6.15c0,.24-.01,.42-.04,.52l-.1,.1h-4.57c.08,1.28,.85,1.98,1.8,1.98,.62,0,1.17-.26,1.58-.99l1.16,.63c-.58,1.04-1.59,1.58-2.74,1.58-2.1,0-3.33-1.6-3.33-3.43,0-1.71,1.33-3.35,3.28-3.35,1.54,0,2.96,1.23,2.96,2.96Zm-4.61-.35h3.17c-.16-.87-.78-1.42-1.53-1.42-.79,0-1.41,.54-1.63,1.42Z" fill="#fff" stroke="#fff" stroke-width=".1"/><path d="M81.7,.05h1.51V9.85h-1.43v-.85c-.53,.62-1.27,.98-2.1,.98-1.73,0-3.04-1.38-3.04-3.35s1.38-3.43,3.04-3.43c.79,0,1.51,.31,2.02,.85V.05Zm.03,6.68v-.3c0-1.34-.97-2-1.77-2-1.07,0-1.76,.97-1.76,2.13s.69,2.16,1.76,2.16c.77,0,1.77-.59,1.77-2Z" fill="#fff" stroke="#fff" stroke-width=".1"/><path d="M49.37,24.92l-.83-2.15h-3.7l-.8,2.15h-1.52l3.53-9.17h1.21l3.7,9.17h-1.58Zm-4.08-3.37h2.79l-1.42-3.69-1.37,3.69Z" fill="#fff" stroke="#fff" stroke-width=".1"/><path d="M58.36,18.72c-.23-.11-.41-.18-.68-.18-.29,0-.56,.11-.83,.36,.5,.4,.8,.94,.8,1.57,0,1.32-1.16,2.22-2.79,2.22-.41,0-.8-.06-1.14-.16-.19,.09-.29,.23-.29,.41,0,.28,.19,.44,.59,.49l2.12,.31c1.32,.19,2.01,.75,2.01,1.8,0,1.31-1.41,2.12-3.48,2.1-1.91-.02-3.05-.71-3.06-1.88,0-.65,.4-1.19,1.05-1.44-.39-.26-.62-.65-.62-1.11,0-.53,.25-.95,.69-1.24-.41-.38-.65-.89-.65-1.49,0-1.27,1.23-2.21,2.76-2.21,.44,0,.84,.08,1.21,.2,.31-.8,.92-1.28,1.62-1.28,.46,0,.77,.12,1.03,.28l-.35,1.25Zm-4.5,6.02c-.55,.13-.92,.45-.92,.92,0,.59,.72,.95,1.83,.95,1.21,0,1.93-.31,1.93-.88,0-.4-.31-.63-1-.73l-1.85-.26Zm2.4-4.24c0-.72-.59-1.17-1.41-1.17s-1.37,.45-1.37,1.17,.55,1.16,1.38,1.16,1.39-.45,1.39-1.16Z" fill="#fff" stroke="#fff" stroke-width=".1"/><path d="M65.6,24.73c-.26,.11-.59,.19-.88,.19-.64,0-1.12-.29-1.32-.8-.5,.58-1.24,.93-2.11,.93-1.27,0-2.08-.64-2.08-1.72-.03-2.52,4.03-1.63,4.03-2.78,0-.68-.51-1.07-1.28-1.07-.69,0-1.23,.28-1.54,.95l-1.13-.54c.54-1.1,1.49-1.63,2.71-1.63,1.76,0,2.73,.92,2.73,2.56v2.49c0,.28,.16,.4,.36,.4,.14,0,.25-.03,.31-.06l.2,1.08Zm-2.36-2.31v-.59c-.98,.48-2.54,.3-2.54,1.36,0,.48,.38,.75,.94,.75,.87,0,1.59-.67,1.59-1.52Z" fill="#fff" stroke="#fff" stroke-width=".1"/><path d="M66.72,16.46c0-.57,.44-1.04,1-1.04s1,.48,1,1.04-.44,1.05-1,1.05-1-.49-1-1.05Zm.19,8.46v-6.53h1.52v6.53h-1.52Z" fill="#fff" stroke="#fff" stroke-width=".1"/><path d="M76.5,21.29v3.63h-1.51v-3.55c0-1.18-.6-1.82-1.48-1.82-.78,0-1.57,.6-1.57,1.71v3.67h-1.51v-6.53h1.43v.82c.49-.62,1.22-.94,2.02-.94,1.62,0,2.61,1.19,2.61,3.03Z" fill="#fff" stroke="#fff" stroke-width=".1"/><path d="M77.87,23.73l.95-.84c.46,.72,1.07,1.09,1.91,1.09,.75,0,1.21-.31,1.19-.79,0-1.46-3.82-.3-3.83-2.89,0-1.17,1.05-2.03,2.51-2.03,1.14,0,2.05,.41,2.62,1.36l-1.02,.68c-.45-.7-.89-.96-1.6-.96-.65,0-1.13,.29-1.13,.77,0,1.33,3.84,.26,3.84,2.91,0,1.22-1.08,2.02-2.62,2.02-1.31,0-2.25-.45-2.84-1.32Z" fill="#fff" stroke="#fff" stroke-width=".1"/><path d="M85.17,22.7v-3.08h-.98v-1.23h1.03v-1.12l1.46-.94v2.06h2.27v1.23h-2.27v3.13c0,.78,.43,1.09,.92,1.09,.45,0,.82-.1,1.24-.44l.23,1.14c-.53,.38-1.12,.5-1.76,.5-1.21,0-2.13-.77-2.13-2.35Z" fill="#fff" stroke="#fff" stroke-width=".1"/><path d="M48.95,40l-2.52-3.98h-1.41v3.98h-1.49v-9.17h3.96c1.98,0,3.03,.97,3.03,2.54,0,1.46-.99,2.4-2.51,2.61l2.62,4.02h-1.67Zm-3.93-7.9v2.74h2.32c1.13,0,1.63-.58,1.63-1.41s-.63-1.33-1.65-1.33h-2.31Z" fill="#b5bbbf" stroke="#b5bbbf" stroke-width=".1"/><path d="M58.04,39.81c-.26,.11-.59,.19-.88,.19-.64,0-1.12-.29-1.32-.8-.5,.58-1.24,.93-2.11,.93-1.27,0-2.08-.64-2.08-1.72-.03-2.52,4.03-1.63,4.03-2.78,0-.68-.51-1.07-1.28-1.07-.69,0-1.23,.28-1.54,.95l-1.13-.54c.54-1.1,1.49-1.63,2.71-1.63,1.76,0,2.73,.92,2.73,2.56v2.49c0,.28,.16,.4,.36,.4,.14,0,.25-.03,.31-.06l.2,1.08Zm-2.36-2.31v-.59c-.98,.48-2.54,.3-2.54,1.36,0,.48,.38,.75,.94,.75,.87,0,1.59-.67,1.59-1.52Z" fill="#b5bbbf" stroke="#b5bbbf" stroke-width=".1"/><path d="M65.94,36.69c0,1.98-1.38,3.43-3.04,3.43-.84,0-1.59-.35-2.12-.97v.84h-1.43v-9.41l1.46-.51v4.25c.53-.62,1.27-.98,2.1-.98,1.75,0,3.04,1.38,3.04,3.35Zm-1.54,.05c0-1.18-.7-2.16-1.77-2.16-.75,0-1.77,.59-1.77,2v.3c0,1.34,.97,2,1.77,2,1.07,0,1.77-.97,1.77-2.14Z" fill="#b5bbbf" stroke="#b5bbbf" stroke-width=".1"/><path d="M67.32,31.53c0-.57,.44-1.04,1-1.04s1,.48,1,1.04-.44,1.05-1,1.05-1-.49-1-1.05Zm.19,8.46v-6.53h1.52v6.53h-1.52Z" fill="#b5bbbf" stroke="#b5bbbf" stroke-width=".1"/><path d="M76.83,36.3c0,.24-.01,.42-.04,.52l-.1,.1h-4.57c.08,1.28,.85,1.98,1.8,1.98,.62,0,1.17-.26,1.58-.99l1.16,.63c-.58,1.04-1.59,1.58-2.74,1.58-2.1,0-3.33-1.6-3.33-3.43,0-1.71,1.33-3.35,3.28-3.35,1.54,0,2.96,1.23,2.96,2.96Zm-4.61-.35h3.17c-.16-.87-.78-1.42-1.53-1.42-.79,0-1.41,.54-1.63,1.42Z" fill="#b5bbbf" stroke="#b5bbbf" stroke-width=".1"/><path d="M77.84,38.8l.95-.84c.46,.72,1.07,1.09,1.91,1.09,.75,0,1.21-.31,1.19-.79,0-1.46-3.82-.3-3.83-2.89,0-1.17,1.05-2.03,2.51-2.03,1.14,0,2.05,.41,2.62,1.36l-1.02,.68c-.45-.7-.89-.96-1.6-.96-.65,0-1.13,.29-1.13,.77,0,1.33,3.84,.26,3.84,2.91,0,1.22-1.08,2.02-2.62,2.02-1.31,0-2.25-.45-2.84-1.32Z" fill="#b5bbbf" stroke="#b5bbbf" stroke-width=".1"/></g><path d="M33.34,4.02c-1.08,0-1.95-.87-1.95-1.95s.87-1.97,1.95-1.97,1.95,.85,1.95,1.92v.05c0,1.08-.87,1.95-1.95,1.95Z" fill="#fff"/><path d="M33.34,24.56c-1.08,0-1.95-.87-1.95-1.95v-.1c0-1.08,.87-1.95,1.95-1.95s1.95,.87,1.95,1.95v.1c0,1.08-.87,1.95-1.95,1.95Zm-31.39,0c-1.08,0-1.95-.82-1.95-1.9v-.1c0-1.08,.87-1.95,1.95-1.95s1.95,.87,1.95,1.95-.87,2-1.95,2Zm31.39-6.84c-1.08,0-1.95-.87-1.95-1.95v-.1c0-1.08,.87-1.95,1.95-1.95s1.95,.87,1.95,1.95v.1c0,1.08-.87,1.95-1.95,1.95Zm-31.39,0c-1.08,0-1.95-.82-1.95-1.9v-.1c0-1.08,.87-1.95,1.95-1.95s1.95,.87,1.95,1.95-.87,2-1.95,2Zm0-6.8c-1.08,0-1.95-.87-1.95-1.95v-.1c0-1.08,.87-1.95,1.95-1.95s1.95,.87,1.95,1.95v.1c0,1.08-.87,1.95-1.95,1.95Zm31.39-.05c-1.08,0-1.95-.87-1.95-1.95s.87-2,1.95-2,1.95,.82,1.95,1.9v.1c0,1.08-.87,1.95-1.95,1.95Z" fill="#fff"/><path d="M1.95,4c-1.08,0-1.95-.85-1.95-1.92v-.05C0,.95,.87,.08,1.95,.08s1.95,.87,1.95,1.95-.87,1.97-1.95,1.97Z" fill="#fff"/><path d="M11.02,41.49c-.24,0-.49-.05-.73-.15l-.12-.05c-.99-.43-1.43-1.58-1-2.56,.43-.98,1.58-1.43,2.56-1,.98,.43,1.48,1.59,1.06,2.57-.32,.74-1.02,1.2-1.77,1.2Z" fill="#b5bbbf"/><path d="M24.3,41.49c-.78,0-1.51-.47-1.81-1.24-.39-1,.1-2.13,1.11-2.52,.99-.39,2.15,.07,2.55,1.05s0,2.09-.98,2.51c-.02,0-.14,.06-.16,.07-.23,.09-.47,.13-.71,.13Z" fill="#b5bbbf"/><path d="M5.53,37.46c-.53,0-1.06-.22-1.43-.67-.01-.02-.09-.11-.1-.13-.67-.84-.53-2.07,.32-2.74,.84-.67,2.07-.53,2.74,.32,.66,.83,.56,2.08-.26,2.75-.37,.3-.82,.46-1.26,.46Z" fill="#b5bbbf"/><path d="M29.74,37.42c-.42,0-.85-.14-1.2-.42-.84-.67-.99-1.87-.32-2.71,.67-.84,1.92-1.02,2.77-.36,.84,.67,1.02,1.85,.35,2.7,0,0-.04,.05-.04,.06-.39,.48-.96,.73-1.54,.73Z" fill="#b5bbbf"/><path d="M17.67,42.75c-1.08,0-1.95-.85-1.95-1.92v-.05c0-1.08,.87-1.95,1.95-1.95s1.95,.87,1.95,1.95-.87,1.97-1.95,1.97Z" fill="#b5bbbf"/><path d="M2.53,31.31c-1.08,0-1.95-.85-1.95-1.92v-.05c0-1.08,.87-1.95,1.95-1.95s1.95,.87,1.95,1.95-.87,1.97-1.95,1.97Z" fill="#b5bbbf"/><path d="M32.74,31.36c-.17,0-.34-.02-.51-.07-1.04-.28-1.65-1.35-1.38-2.39,.25-1.04,1.31-1.71,2.36-1.46,1.04,.25,1.69,1.28,1.44,2.33l-.04,.14c-.23,.87-1.02,1.44-1.88,1.44Z" fill="#b5bbbf"/></svg>