<?xml version="1.0" encoding="UTF-8"?><svg id="a" xmlns="http://www.w3.org/2000/svg" width="751" height="802" viewBox="0 0 751 802"><rect width="751" height="802" fill="#fff"/><rect x="127.5" y="128" width="496" height="296" fill="#1a3146"/><g><g><path d="M371.9,226.68v-17.28h4.93v17.52c0,4.72,2.91,7.99,7.19,7.99s7.19-3.03,7.19-7.99v-17.52h4.89v17.28c0,7.43-4.72,12.6-12.07,12.6s-12.11-4.97-12.11-12.6Z" fill="#fff"/><path d="M421.56,227.2v11.67h-4.84v-11.43c0-3.79-1.94-5.85-4.76-5.85-2.5,0-5.05,1.94-5.05,5.49v11.79h-4.84v-21h4.6v2.62c1.58-1.98,3.92-3.03,6.5-3.03,5.21,0,8.4,3.84,8.4,9.73Z" fill="#fff"/><path d="M427.09,211.66c0-1.82,1.41-3.35,3.23-3.35s3.23,1.53,3.23,3.35-1.41,3.39-3.23,3.39-3.23-1.57-3.23-3.39Zm.61,27.21v-21h4.88v21h-4.88Z" fill="#fff"/><path d="M440.01,231.73v-9.89h-3.15v-3.96h3.31v-3.59l4.68-3.03v6.62h7.31v3.96h-7.31v10.05c0,2.5,1.37,3.51,2.95,3.51,1.45,0,2.62-.32,4-1.41l.73,3.67c-1.7,1.21-3.59,1.62-5.65,1.62-3.88,0-6.86-2.46-6.86-7.55Z" fill="#fff"/><path d="M475.13,227c0,.77-.04,1.33-.12,1.66l-.32,.32h-14.7c.24,4.12,2.75,6.38,5.77,6.38,1.98,0,3.76-.85,5.09-3.19l3.71,2.02c-1.86,3.35-5.13,5.09-8.8,5.09-6.74,0-10.7-5.13-10.7-11.02,0-5.49,4.28-10.78,10.54-10.78,4.97,0,9.53,3.96,9.53,9.53Zm-14.82-1.13h10.17c-.53-2.79-2.5-4.56-4.93-4.56-2.54,0-4.52,1.74-5.25,4.56Z" fill="#fff"/><path d="M494.95,207.38h4.84v31.49h-4.6v-2.75c-1.7,1.98-4.08,3.15-6.74,3.15-5.57,0-9.77-4.44-9.77-10.78s4.44-11.02,9.77-11.02c2.54,0,4.84,1.01,6.5,2.75v-12.84Zm.08,21.48v-.97c0-4.32-3.11-6.42-5.69-6.42-3.43,0-5.65,3.11-5.65,6.86s2.22,6.94,5.65,6.94c2.46,0,5.69-1.9,5.69-6.42Z" fill="#fff"/><path d="M391.04,287.32l-2.67-6.9h-11.91l-2.58,6.9h-4.89l11.35-29.47h3.88l11.91,29.47h-5.09Zm-13.12-10.82h8.96l-4.56-11.87-4.4,11.87Z" fill="#fff"/><path d="M419.94,267.37c-.73-.36-1.33-.56-2.18-.56-.93,0-1.82,.36-2.66,1.17,1.61,1.29,2.58,3.03,2.58,5.05,0,4.24-3.71,7.15-8.96,7.15-1.33,0-2.58-.2-3.67-.52-.61,.28-.93,.73-.93,1.33,0,.89,.61,1.41,1.9,1.57l6.82,1.01c4.24,.61,6.46,2.42,6.46,5.77,0,4.2-4.52,6.82-11.18,6.74-6.14-.08-9.81-2.3-9.85-6.06,0-2.1,1.29-3.84,3.39-4.64-1.25-.85-1.98-2.1-1.98-3.55,0-1.7,.81-3.07,2.22-4-1.33-1.21-2.1-2.87-2.1-4.8,0-4.08,3.96-7.11,8.88-7.11,1.41,0,2.71,.24,3.88,.65,1.01-2.58,2.95-4.12,5.21-4.12,1.49,0,2.46,.4,3.31,.89l-1.13,4.04Zm-14.45,19.34c-1.78,.4-2.95,1.45-2.95,2.95,0,1.9,2.3,3.07,5.89,3.07,3.88,0,6.22-1.01,6.22-2.83,0-1.29-1.01-2.02-3.23-2.34l-5.93-.85Zm7.71-13.65c0-2.3-1.9-3.75-4.52-3.75s-4.4,1.45-4.4,3.75,1.78,3.71,4.44,3.71,4.48-1.45,4.48-3.71Z" fill="#fff"/><path d="M443.2,286.71c-.85,.36-1.9,.61-2.83,.61-2.06,0-3.59-.93-4.24-2.58-1.62,1.86-4,2.99-6.78,2.99-4.08,0-6.7-2.06-6.7-5.53-.08-8.12,12.96-5.25,12.96-8.92,0-2.18-1.66-3.43-4.12-3.43-2.22,0-3.96,.89-4.97,3.07l-3.63-1.74c1.74-3.55,4.8-5.25,8.72-5.25,5.65,0,8.76,2.95,8.76,8.24v7.99c0,.89,.53,1.29,1.17,1.29,.44,0,.81-.08,1.01-.2l.65,3.47Zm-7.59-7.43v-1.9c-3.15,1.53-8.16,.97-8.16,4.36,0,1.53,1.21,2.42,3.03,2.42,2.79,0,5.13-2.14,5.13-4.89Z" fill="#fff"/><path d="M446.79,260.1c0-1.82,1.41-3.35,3.23-3.35s3.23,1.53,3.23,3.35-1.41,3.39-3.23,3.39-3.23-1.57-3.23-3.39Zm.61,27.21v-20.99h4.88v20.99h-4.88Z" fill="#fff"/><path d="M478.24,275.65v11.67h-4.84v-11.43c0-3.79-1.94-5.85-4.76-5.85-2.5,0-5.05,1.94-5.05,5.49v11.79h-4.84v-20.99h4.6v2.62c1.58-1.98,3.92-3.03,6.5-3.03,5.21,0,8.4,3.84,8.4,9.73Z" fill="#fff"/><path d="M482.64,283.48l3.07-2.71c1.49,2.3,3.43,3.51,6.14,3.51,2.42,0,3.88-1.01,3.83-2.54,0-4.68-12.27-.97-12.31-9.29,0-3.75,3.39-6.54,8.08-6.54,3.67,0,6.58,1.33,8.44,4.36l-3.27,2.18c-1.45-2.26-2.87-3.07-5.13-3.07-2.1,0-3.63,.93-3.63,2.46,0,4.28,12.36,.85,12.36,9.37,0,3.92-3.47,6.5-8.44,6.5-4.2,0-7.23-1.45-9.12-4.24Z" fill="#fff"/><path d="M506.09,280.17v-9.89h-3.15v-3.96h3.31v-3.59l4.68-3.03v6.62h7.31v3.96h-7.31v10.05c0,2.5,1.37,3.51,2.95,3.51,1.45,0,2.62-.32,4-1.41l.73,3.67c-1.7,1.21-3.59,1.62-5.65,1.62-3.88,0-6.86-2.46-6.86-7.55Z" fill="#fff"/><path d="M389.71,335.76l-8.12-12.8h-4.52v12.8h-4.8v-29.47h12.72c6.38,0,9.73,3.11,9.73,8.16,0,4.68-3.19,7.71-8.07,8.4l8.44,12.92h-5.37Zm-12.64-25.4v8.8h7.47c3.63,0,5.25-1.86,5.25-4.52s-2.02-4.28-5.29-4.28h-7.43Z" fill="#ff6960"/><path d="M418.9,335.16c-.85,.36-1.9,.61-2.83,.61-2.06,0-3.59-.93-4.24-2.58-1.61,1.86-4,2.99-6.78,2.99-4.08,0-6.7-2.06-6.7-5.53-.08-8.12,12.96-5.25,12.96-8.92,0-2.18-1.66-3.43-4.12-3.43-2.22,0-3.96,.89-4.97,3.07l-3.63-1.74c1.74-3.55,4.8-5.25,8.72-5.25,5.65,0,8.76,2.95,8.76,8.24v7.99c0,.89,.53,1.29,1.17,1.29,.44,0,.81-.08,1.01-.2l.65,3.47Zm-7.59-7.43v-1.9c-3.15,1.53-8.16,.97-8.16,4.36,0,1.53,1.21,2.42,3.03,2.42,2.79,0,5.13-2.14,5.13-4.89Z" fill="#ff6960"/><path d="M444.29,325.14c0,6.38-4.44,11.02-9.77,11.02-2.71,0-5.13-1.13-6.82-3.11v2.71h-4.6v-30.24l4.68-1.66v13.65c1.7-1.98,4.08-3.15,6.74-3.15,5.61,0,9.77,4.44,9.77,10.78Zm-4.97,.16c0-3.8-2.26-6.94-5.69-6.94-2.42,0-5.69,1.9-5.69,6.42v.97c0,4.32,3.11,6.42,5.69,6.42,3.43,0,5.69-3.11,5.69-6.86Z" fill="#ff6960"/><path d="M448.73,308.55c0-1.82,1.41-3.35,3.23-3.35s3.23,1.53,3.23,3.35-1.41,3.39-3.23,3.39-3.23-1.57-3.23-3.39Zm.61,27.21v-20.99h4.89v20.99h-4.89Z" fill="#ff6960"/><path d="M479.29,323.89c0,.77-.04,1.33-.12,1.66l-.32,.32h-14.7c.24,4.12,2.75,6.38,5.77,6.38,1.98,0,3.75-.85,5.09-3.19l3.71,2.02c-1.86,3.35-5.13,5.09-8.8,5.09-6.74,0-10.7-5.13-10.7-11.02,0-5.49,4.28-10.78,10.54-10.78,4.97,0,9.53,3.96,9.53,9.53Zm-14.82-1.13h10.17c-.52-2.79-2.5-4.56-4.92-4.56-2.54,0-4.52,1.74-5.25,4.56Z" fill="#ff6960"/><path d="M482.52,331.93l3.07-2.71c1.49,2.3,3.43,3.51,6.14,3.51,2.42,0,3.88-1.01,3.83-2.54,0-4.68-12.27-.97-12.31-9.29,0-3.75,3.39-6.54,8.08-6.54,3.67,0,6.58,1.33,8.44,4.36l-3.27,2.18c-1.45-2.26-2.87-3.07-5.13-3.07-2.1,0-3.63,.93-3.63,2.46,0,4.28,12.35,.85,12.35,9.37,0,3.92-3.47,6.5-8.44,6.5-4.2,0-7.23-1.45-9.12-4.24Z" fill="#ff6960"/></g><path d="M339.52,220.17c-3.45,0-6.26-2.8-6.26-6.26s2.8-6.34,6.26-6.34,6.26,2.72,6.26,6.18v.16c0,3.46-2.8,6.26-6.26,6.26Z" fill="#fff"/><path d="M339.52,286.17c-3.45,0-6.26-2.8-6.26-6.26v-.32c0-3.46,2.8-6.26,6.26-6.26s6.26,2.8,6.26,6.26v.32c0,3.46-2.8,6.26-6.26,6.26Zm-100.87-.01c-3.45,0-6.26-2.64-6.26-6.1v-.32c0-3.46,2.8-6.26,6.26-6.26s6.26,2.8,6.26,6.26-2.8,6.42-6.26,6.42Zm100.87-21.99c-3.45,0-6.26-2.8-6.26-6.26v-.32c0-3.46,2.8-6.26,6.26-6.26s6.26,2.8,6.26,6.26v.32c0,3.46-2.8,6.26-6.26,6.26Zm-100.87-.01c-3.45,0-6.26-2.64-6.26-6.1v-.32c0-3.46,2.8-6.26,6.26-6.26s6.26,2.8,6.26,6.26-2.8,6.42-6.26,6.42Zm0-21.84c-3.45,0-6.26-2.8-6.26-6.26v-.32c0-3.46,2.8-6.26,6.26-6.26s6.26,2.8,6.26,6.26v.32c0,3.46-2.8,6.26-6.26,6.26Zm100.87-.15c-3.45,0-6.26-2.8-6.26-6.26s2.8-6.42,6.26-6.42,6.26,2.64,6.26,6.1v.32c0,3.46-2.8,6.26-6.26,6.26Z" fill="#fff"/><path d="M238.65,220.09c-3.45,0-6.26-2.72-6.26-6.18v-.16c0-3.46,2.8-6.26,6.26-6.26s6.26,2.8,6.26,6.26-2.8,6.34-6.26,6.34Z" fill="#fff"/><path d="M267.79,340.57c-.78,0-1.57-.15-2.35-.48-.03-.01-.35-.15-.38-.16-3.17-1.39-4.61-5.07-3.23-8.24,1.39-3.16,5.08-4.61,8.24-3.22,3.15,1.38,4.74,5.1,3.39,8.26-1.02,2.39-3.27,3.85-5.67,3.85Z" fill="#ff6960"/><path d="M310.47,340.56c-2.5,0-4.87-1.51-5.83-3.98-1.26-3.22,.33-6.85,3.55-8.1,3.18-1.24,6.91,.23,8.21,3.38,1.3,3.15-.01,6.7-3.14,8.06-.07,.03-.44,.19-.52,.21-.75,.29-1.52,.43-2.27,.43Z" fill="#ff6960"/><path d="M250.15,327.6c-1.71,0-3.39-.71-4.6-2.14-.04-.05-.29-.35-.33-.4-2.15-2.71-1.69-6.64,1.02-8.79,2.71-2.14,6.64-1.69,8.79,1.02,2.12,2.68,1.81,6.68-.84,8.85-1.19,.98-2.63,1.47-4.04,1.47Z" fill="#ff6960"/><path d="M327.95,327.49c-1.36,0-2.73-.44-3.87-1.35-2.68-2.15-3.18-6.01-1.04-8.71,2.14-2.71,6.18-3.29,8.89-1.14,2.71,2.15,3.26,5.96,1.12,8.66-.01,.02-.13,.16-.14,.18-1.25,1.54-3.1,2.35-4.95,2.35Z" fill="#ff6960"/><path d="M289.16,344.62c-3.45,0-6.26-2.72-6.26-6.18v-.16c0-3.46,2.8-6.26,6.26-6.26s6.26,2.8,6.26,6.26-2.8,6.34-6.26,6.34Z" fill="#ff6960"/><path d="M240.51,307.87c-3.45,0-6.26-2.72-6.26-6.18v-.16c0-3.46,2.8-6.26,6.26-6.26s6.26,2.8,6.26,6.26-2.8,6.34-6.26,6.34Z" fill="#ff6960"/><path d="M337.61,308.02c-.54,0-1.08-.07-1.63-.22-3.34-.9-5.32-4.33-4.42-7.67,.82-3.36,4.21-5.5,7.58-4.69,3.36,.82,5.44,4.12,4.63,7.47l-.12,.46c-.75,2.79-3.28,4.63-6.04,4.63Z" fill="#ff6960"/></g><g><path d="M179.7,536.79l-10.86-36.96h6.33l8.29,31.75,8.06-31.75h6.16l8.12,31.81,8.23-31.81h6.1l-10.81,36.96h-7.06l-5.88-22.18-1.85-8.51h-.06l-1.85,8.51-5.82,22.18h-7.11Z" fill="#1a3146"/><path d="M236.43,537.35c-2.8,0-5.26-.58-7.39-1.74-2.13-1.16-3.78-2.83-4.96-5.01-1.18-2.18-1.76-4.79-1.76-7.81s.59-5.63,1.76-7.81c1.18-2.18,2.81-3.85,4.9-5.01,2.09-1.16,4.46-1.74,7.11-1.74s5.04,.56,6.94,1.68c1.9,1.12,3.36,2.65,4.37,4.59,1.01,1.94,1.51,4.14,1.51,6.61,0,.67-.02,1.31-.06,1.9-.04,.6-.09,1.12-.17,1.57h-22.51v-4.59h19.88l-2.97,.9c0-2.54-.64-4.49-1.9-5.85-1.27-1.36-3.01-2.04-5.21-2.04-1.61,0-3.01,.37-4.2,1.12-1.2,.75-2.11,1.86-2.74,3.33-.64,1.48-.95,3.28-.95,5.4s.34,3.86,1.01,5.32c.67,1.46,1.62,2.56,2.86,3.3,1.23,.75,2.69,1.12,4.37,1.12,1.87,0,3.38-.35,4.54-1.06,1.16-.71,2.07-1.7,2.74-2.97l4.76,2.24c-.67,1.34-1.58,2.51-2.72,3.5-1.14,.99-2.49,1.75-4.06,2.27-1.57,.52-3.29,.78-5.15,.78Z" fill="#1a3146"/><path d="M271.48,537.35c-1.64,0-3.15-.32-4.51-.95-1.36-.63-2.51-1.52-3.44-2.66-.93-1.14-1.62-2.42-2.07-3.84l.73-.95-.45,7.84h-5.26v-40.6h5.99v19.66l-.67-.95c.71-1.94,1.92-3.54,3.64-4.79,1.72-1.25,3.79-1.88,6.22-1.88,2.24,0,4.3,.58,6.19,1.74,1.88,1.16,3.37,2.82,4.45,4.98,1.08,2.17,1.62,4.8,1.62,7.9s-.55,5.62-1.65,7.78c-1.1,2.17-2.6,3.83-4.48,4.98-1.89,1.16-3.99,1.74-6.3,1.74Zm-1.29-4.82c2.43,0,4.32-.87,5.68-2.6,1.36-1.74,2.04-4.12,2.04-7.14s-.67-5.39-2.02-7.11c-1.34-1.72-3.23-2.58-5.66-2.58-1.57,0-2.93,.4-4.09,1.2-1.16,.8-2.06,1.93-2.72,3.39-.65,1.46-.98,3.19-.98,5.21s.32,3.69,.95,5.12c.63,1.44,1.54,2.55,2.72,3.33,1.18,.78,2.53,1.18,4.06,1.18Z" fill="#1a3146"/><path d="M302.23,537.35c-2.8,0-5.36-.54-7.67-1.62-2.32-1.08-4.14-2.61-5.49-4.59l4.14-3.58c.82,1.53,2.01,2.75,3.56,3.67,1.55,.92,3.41,1.37,5.57,1.37,1.72,0,3.08-.3,4.09-.9,1.01-.6,1.51-1.44,1.51-2.52,0-.71-.23-1.33-.7-1.88-.47-.54-1.35-.96-2.66-1.26l-5.88-1.23c-2.99-.6-5.12-1.56-6.38-2.88-1.27-1.32-1.9-3.01-1.9-5.07,0-1.53,.45-2.95,1.34-4.26,.9-1.31,2.21-2.36,3.95-3.16,1.74-.8,3.82-1.2,6.24-1.2,2.8,0,5.19,.5,7.17,1.48,1.98,.99,3.49,2.4,4.54,4.23l-4.14,3.47c-.71-1.49-1.75-2.6-3.14-3.33-1.38-.73-2.82-1.09-4.31-1.09-1.2,0-2.22,.15-3.08,.45-.86,.3-1.51,.71-1.96,1.23-.45,.52-.67,1.14-.67,1.85,0,.75,.28,1.4,.84,1.96s1.57,.99,3.02,1.29l6.38,1.34c2.69,.52,4.58,1.41,5.68,2.66,1.1,1.25,1.65,2.77,1.65,4.56s-.47,3.37-1.4,4.73c-.93,1.36-2.28,2.42-4.03,3.16-1.76,.75-3.85,1.12-6.27,1.12Z" fill="#1a3146"/><path d="M324.23,504.09c-1.31,0-2.31-.33-3-.98-.69-.65-1.04-1.58-1.04-2.77s.34-2.11,1.04-2.74c.69-.63,1.69-.95,3-.95s2.25,.32,2.94,.95c.69,.64,1.04,1.55,1.04,2.74s-.35,2.12-1.04,2.77c-.69,.65-1.67,.98-2.94,.98Zm2.97,4.7v28h-5.99v-28h5.99Z" fill="#1a3146"/><path d="M354.36,508.79v4.7h-21v-4.7h21Zm-9.63-8.23v27.83c0,1.38,.36,2.39,1.09,3.02,.73,.64,1.71,.95,2.94,.95,1.01,0,1.88-.16,2.63-.48,.75-.32,1.44-.76,2.07-1.32l1.34,4.37c-.86,.75-1.91,1.34-3.16,1.76-1.25,.43-2.64,.64-4.17,.64-1.61,0-3.08-.26-4.42-.78-1.34-.52-2.39-1.37-3.14-2.55-.75-1.18-1.14-2.72-1.18-4.62v-27.16l5.99-1.68Z" fill="#1a3146"/><path d="M372.62,537.35c-2.8,0-5.26-.58-7.39-1.74-2.13-1.16-3.78-2.83-4.96-5.01s-1.76-4.79-1.76-7.81,.59-5.63,1.76-7.81,2.81-3.85,4.9-5.01c2.09-1.16,4.46-1.74,7.11-1.74s5.04,.56,6.94,1.68,3.36,2.65,4.37,4.59c1.01,1.94,1.51,4.14,1.51,6.61,0,.67-.02,1.31-.06,1.9-.04,.6-.09,1.12-.17,1.57h-22.51v-4.59h19.88l-2.97,.9c0-2.54-.63-4.49-1.9-5.85-1.27-1.36-3-2.04-5.21-2.04-1.61,0-3,.37-4.2,1.12-1.2,.75-2.11,1.86-2.74,3.33-.64,1.48-.95,3.28-.95,5.4s.34,3.86,1.01,5.32,1.62,2.56,2.86,3.3c1.23,.75,2.69,1.12,4.37,1.12,1.87,0,3.38-.35,4.54-1.06,1.16-.71,2.07-1.7,2.74-2.97l4.76,2.24c-.67,1.34-1.58,2.51-2.72,3.5-1.14,.99-2.49,1.75-4.06,2.27s-3.29,.78-5.15,.78Z" fill="#1a3146"/><path d="M420.83,537.35c-1.83,0-3.52-.34-5.07-1.01-1.55-.67-2.79-1.75-3.72-3.25-.93-1.49-1.4-3.43-1.4-5.82v-18.48h5.99v16.97c0,2.54,.54,4.28,1.62,5.24,1.08,.95,2.59,1.43,4.54,1.43,.93,0,1.84-.16,2.72-.48,.88-.32,1.67-.82,2.38-1.51,.71-.69,1.26-1.58,1.65-2.66,.39-1.08,.59-2.35,.59-3.81v-15.18h5.99v28h-5.26l-.28-4.54c-.97,1.76-2.28,3.04-3.92,3.86-1.64,.82-3.58,1.23-5.82,1.23Z" fill="#1a3146"/><path d="M445.47,536.79v-28h5.32l.39,7.28-.78-.78c.52-1.6,1.28-2.94,2.27-4s2.17-1.84,3.53-2.32c1.36-.48,2.81-.73,4.34-.73,1.98,0,3.76,.38,5.35,1.15,1.59,.77,2.85,1.91,3.78,3.44,.93,1.53,1.4,3.47,1.4,5.82v18.14h-5.99v-16.3c0-2.76-.57-4.68-1.71-5.74-1.14-1.06-2.57-1.6-4.28-1.6-1.23,0-2.43,.29-3.58,.87-1.16,.58-2.12,1.5-2.88,2.77-.77,1.27-1.15,2.97-1.15,5.1v14.9h-5.99Z" fill="#1a3146"/><path d="M490.89,537.35c-2.32,0-4.42-.58-6.3-1.74-1.88-1.16-3.37-2.82-4.45-4.98-1.08-2.16-1.62-4.76-1.62-7.78s.58-5.79,1.74-7.95c1.16-2.16,2.71-3.82,4.65-4.96,1.94-1.14,4.07-1.71,6.38-1.71s4.4,.65,6.05,1.96c1.64,1.31,2.74,3.01,3.3,5.1l-.67,.62v-19.71h5.99v40.6h-5.32l-.45-7.62,.78,.06c-.26,1.68-.88,3.13-1.85,4.34-.97,1.21-2.17,2.15-3.61,2.8s-2.98,.98-4.62,.98Zm1.29-4.82c1.6,0,2.99-.41,4.14-1.23,1.16-.82,2.05-1.98,2.69-3.47,.63-1.49,.95-3.28,.95-5.38,0-1.94-.32-3.61-.95-5.01s-1.52-2.47-2.66-3.22c-1.14-.75-2.46-1.12-3.95-1.12-2.5,0-4.44,.86-5.82,2.58-1.38,1.72-2.07,4.09-2.07,7.11s.67,5.4,2.02,7.14c1.34,1.74,3.23,2.6,5.66,2.6Z" fill="#1a3146"/><path d="M527.57,537.35c-2.8,0-5.26-.58-7.39-1.74-2.13-1.16-3.78-2.83-4.96-5.01s-1.76-4.79-1.76-7.81,.59-5.63,1.76-7.81,2.81-3.85,4.9-5.01c2.09-1.16,4.46-1.74,7.11-1.74s5.04,.56,6.94,1.68,3.36,2.65,4.37,4.59c1.01,1.94,1.51,4.14,1.51,6.61,0,.67-.02,1.31-.06,1.9-.04,.6-.09,1.12-.17,1.57h-22.51v-4.59h19.88l-2.97,.9c0-2.54-.63-4.49-1.9-5.85-1.27-1.36-3-2.04-5.21-2.04-1.61,0-3,.37-4.2,1.12-1.2,.75-2.11,1.86-2.74,3.33-.64,1.48-.95,3.28-.95,5.4s.34,3.86,1.01,5.32,1.62,2.56,2.86,3.3c1.23,.75,2.69,1.12,4.37,1.12,1.87,0,3.38-.35,4.54-1.06,1.16-.71,2.07-1.7,2.74-2.97l4.76,2.24c-.67,1.34-1.58,2.51-2.72,3.5-1.14,.99-2.49,1.75-4.06,2.27s-3.29,.78-5.15,.78Z" fill="#1a3146"/><path d="M547.61,536.79v-28h5.1l.56,5.04c.75-1.83,1.86-3.22,3.33-4.17,1.47-.95,3.29-1.43,5.46-1.43,.56,0,1.12,.05,1.68,.14,.56,.09,1.03,.23,1.4,.42l-.84,5.26c-.41-.15-.87-.27-1.37-.36-.5-.09-1.19-.14-2.04-.14-1.16,0-2.3,.31-3.42,.92-1.12,.62-2.04,1.54-2.77,2.77-.73,1.23-1.09,2.8-1.09,4.7v14.84h-5.99Z" fill="#1a3146"/><path d="M217.11,575.43c2.24,0,4.15,.33,5.74,.98,1.59,.65,2.92,1.58,4,2.77,1.08,1.2,1.9,2.56,2.46,4.09l-5.66,2.24c-.49-1.72-1.26-3.03-2.32-3.95-1.06-.91-2.46-1.37-4.17-1.37s-3.12,.38-4.31,1.15c-1.19,.77-2.1,1.88-2.72,3.33s-.92,3.25-.92,5.38,.32,3.86,.95,5.32c.63,1.46,1.55,2.56,2.74,3.3,1.19,.75,2.61,1.12,4.26,1.12,1.27,0,2.37-.21,3.3-.64,.93-.43,1.71-1.04,2.32-1.85,.62-.8,1.04-1.78,1.26-2.94l5.43,1.85c-.52,1.68-1.34,3.15-2.44,4.4-1.1,1.25-2.47,2.22-4.12,2.91-1.64,.69-3.53,1.04-5.66,1.04-2.76,0-5.21-.58-7.34-1.74s-3.78-2.83-4.96-5.01c-1.18-2.18-1.76-4.79-1.76-7.81s.59-5.63,1.76-7.81c1.18-2.18,2.82-3.85,4.93-5.01,2.11-1.16,4.51-1.74,7.2-1.74Z" fill="#1a3146"/><path d="M248.63,575.43c2.73,0,5.13,.58,7.22,1.74,2.09,1.16,3.72,2.83,4.9,5.01,1.18,2.18,1.76,4.79,1.76,7.81s-.59,5.63-1.76,7.81c-1.18,2.18-2.81,3.86-4.9,5.01-2.09,1.16-4.5,1.74-7.22,1.74s-5.13-.58-7.22-1.74c-2.09-1.16-3.73-2.83-4.93-5.01-1.2-2.18-1.79-4.79-1.79-7.81s.6-5.63,1.79-7.81c1.19-2.18,2.84-3.85,4.93-5.01,2.09-1.16,4.5-1.74,7.22-1.74Zm0,4.7c-1.68,0-3.11,.38-4.28,1.15-1.18,.77-2.08,1.88-2.72,3.33-.64,1.46-.95,3.25-.95,5.38s.32,3.87,.95,5.35c.63,1.48,1.54,2.6,2.72,3.36,1.18,.77,2.6,1.15,4.28,1.15s3.1-.38,4.26-1.15c1.16-.76,2.05-1.88,2.69-3.36,.63-1.47,.95-3.26,.95-5.35s-.32-3.92-.95-5.38c-.64-1.46-1.53-2.57-2.69-3.33-1.16-.76-2.58-1.15-4.26-1.15Z" fill="#1a3146"/><path d="M270.08,604v-28h5.32l.39,7.28-.78-.78c.52-1.61,1.28-2.94,2.27-4,.99-1.06,2.16-1.84,3.53-2.32,1.36-.49,2.81-.73,4.34-.73,1.98,0,3.76,.38,5.35,1.15,1.59,.77,2.85,1.91,3.78,3.44,.93,1.53,1.4,3.47,1.4,5.82v18.14h-5.99v-16.3c0-2.76-.57-4.68-1.71-5.74-1.14-1.06-2.57-1.6-4.28-1.6-1.23,0-2.43,.29-3.58,.87-1.16,.58-2.12,1.5-2.88,2.77-.77,1.27-1.15,2.97-1.15,5.1v14.9h-5.99Z" fill="#1a3146"/><path d="M315.38,604.55c-2.8,0-5.36-.54-7.67-1.62-2.32-1.08-4.14-2.61-5.49-4.59l4.14-3.58c.82,1.53,2.01,2.75,3.56,3.67,1.55,.92,3.41,1.37,5.57,1.37,1.72,0,3.08-.3,4.09-.9,1.01-.6,1.51-1.44,1.51-2.52,0-.71-.23-1.33-.7-1.88-.47-.54-1.35-.96-2.66-1.26l-5.88-1.23c-2.99-.6-5.12-1.56-6.38-2.88-1.27-1.33-1.9-3.01-1.9-5.07,0-1.53,.45-2.95,1.34-4.26,.9-1.31,2.21-2.36,3.95-3.16,1.74-.8,3.82-1.2,6.24-1.2,2.8,0,5.19,.5,7.17,1.48,1.98,.99,3.49,2.4,4.54,4.23l-4.14,3.47c-.71-1.49-1.75-2.6-3.14-3.33-1.38-.73-2.82-1.09-4.31-1.09-1.2,0-2.22,.15-3.08,.45-.86,.3-1.51,.71-1.96,1.23-.45,.52-.67,1.14-.67,1.85,0,.75,.28,1.4,.84,1.96,.56,.56,1.57,.99,3.02,1.29l6.38,1.34c2.69,.52,4.58,1.41,5.68,2.66,1.1,1.25,1.65,2.77,1.65,4.56s-.47,3.37-1.4,4.73c-.93,1.36-2.28,2.42-4.03,3.16-1.76,.75-3.85,1.12-6.27,1.12Z" fill="#1a3146"/><path d="M352.18,576v4.7h-21v-4.7h21Zm-9.63-8.23v27.83c0,1.38,.36,2.39,1.09,3.02s1.71,.95,2.94,.95c1.01,0,1.88-.16,2.63-.48,.75-.32,1.44-.76,2.07-1.32l1.34,4.37c-.86,.75-1.91,1.34-3.16,1.76-1.25,.43-2.64,.64-4.17,.64-1.61,0-3.08-.26-4.42-.78-1.34-.52-2.39-1.37-3.14-2.55-.75-1.18-1.14-2.72-1.18-4.62v-27.16l5.99-1.68Z" fill="#1a3146"/><path d="M358.11,604v-28h5.1l.56,5.04c.75-1.83,1.86-3.22,3.33-4.17,1.47-.95,3.29-1.43,5.46-1.43,.56,0,1.12,.05,1.68,.14,.56,.09,1.03,.23,1.4,.42l-.84,5.26c-.41-.15-.87-.27-1.37-.36-.5-.09-1.19-.14-2.04-.14-1.16,0-2.3,.31-3.42,.92s-2.04,1.54-2.77,2.77c-.73,1.23-1.09,2.8-1.09,4.7v14.84h-5.99Z" fill="#1a3146"/><path d="M391.26,604.55c-1.83,0-3.52-.34-5.07-1.01-1.55-.67-2.79-1.75-3.72-3.25-.93-1.49-1.4-3.43-1.4-5.82v-18.48h5.99v16.97c0,2.54,.54,4.28,1.62,5.24,1.08,.95,2.59,1.43,4.54,1.43,.93,0,1.84-.16,2.72-.48,.88-.32,1.67-.82,2.38-1.51,.71-.69,1.26-1.58,1.65-2.66,.39-1.08,.59-2.35,.59-3.81v-15.18h5.99v28h-5.26l-.28-4.54c-.97,1.75-2.28,3.04-3.92,3.86-1.64,.82-3.58,1.23-5.82,1.23Z" fill="#1a3146"/><path d="M428,575.43c2.24,0,4.15,.33,5.74,.98,1.59,.65,2.92,1.58,4,2.77,1.08,1.2,1.9,2.56,2.46,4.09l-5.66,2.24c-.49-1.72-1.26-3.03-2.32-3.95-1.06-.91-2.46-1.37-4.17-1.37s-3.12,.38-4.31,1.15c-1.2,.77-2.1,1.88-2.72,3.33-.62,1.46-.92,3.25-.92,5.38s.32,3.86,.95,5.32,1.55,2.56,2.74,3.3c1.19,.75,2.61,1.12,4.26,1.12,1.27,0,2.37-.21,3.3-.64,.93-.43,1.71-1.04,2.32-1.85,.62-.8,1.04-1.78,1.26-2.94l5.43,1.85c-.52,1.68-1.33,3.15-2.44,4.4-1.1,1.25-2.47,2.22-4.12,2.91-1.64,.69-3.53,1.04-5.66,1.04-2.76,0-5.21-.58-7.34-1.74s-3.78-2.83-4.96-5.01c-1.18-2.18-1.76-4.79-1.76-7.81s.59-5.63,1.76-7.81c1.18-2.18,2.82-3.85,4.93-5.01s4.51-1.74,7.2-1.74Z" fill="#1a3146"/><path d="M465.18,576v4.7h-21v-4.7h21Zm-9.63-8.23v27.83c0,1.38,.36,2.39,1.09,3.02s1.71,.95,2.94,.95c1.01,0,1.88-.16,2.63-.48,.75-.32,1.44-.76,2.07-1.32l1.34,4.37c-.86,.75-1.91,1.34-3.16,1.76-1.25,.43-2.64,.64-4.17,.64-1.61,0-3.08-.26-4.42-.78-1.34-.52-2.39-1.37-3.14-2.55-.75-1.18-1.14-2.72-1.18-4.62v-27.16l5.99-1.68Z" fill="#1a3146"/><path d="M474.14,571.29c-1.31,0-2.31-.33-3-.98-.69-.65-1.04-1.58-1.04-2.77s.34-2.11,1.04-2.74c.69-.63,1.69-.95,3-.95s2.25,.32,2.94,.95c.69,.63,1.04,1.55,1.04,2.74s-.35,2.12-1.04,2.77c-.69,.65-1.67,.98-2.94,.98Zm2.97,4.7v28h-5.99v-28h5.99Z" fill="#1a3146"/><path d="M498.61,575.43c2.72,0,5.13,.58,7.22,1.74,2.09,1.16,3.72,2.83,4.9,5.01,1.18,2.18,1.76,4.79,1.76,7.81s-.59,5.63-1.76,7.81c-1.18,2.18-2.81,3.86-4.9,5.01-2.09,1.16-4.5,1.74-7.22,1.74s-5.13-.58-7.22-1.74c-2.09-1.16-3.73-2.83-4.93-5.01-1.2-2.18-1.79-4.79-1.79-7.81s.6-5.63,1.79-7.81c1.19-2.18,2.84-3.85,4.93-5.01,2.09-1.16,4.5-1.74,7.22-1.74Zm0,4.7c-1.68,0-3.11,.38-4.28,1.15-1.18,.77-2.08,1.88-2.72,3.33s-.95,3.25-.95,5.38,.32,3.87,.95,5.35c.63,1.48,1.54,2.6,2.72,3.36,1.18,.77,2.6,1.15,4.28,1.15s3.1-.38,4.26-1.15c1.16-.76,2.05-1.88,2.69-3.36,.63-1.47,.95-3.26,.95-5.35s-.32-3.92-.95-5.38c-.64-1.46-1.53-2.57-2.69-3.33-1.16-.76-2.58-1.15-4.26-1.15Z" fill="#1a3146"/><path d="M520.06,604v-28h5.32l.39,7.28-.78-.78c.52-1.61,1.28-2.94,2.27-4,.99-1.06,2.17-1.84,3.53-2.32,1.36-.49,2.81-.73,4.34-.73,1.98,0,3.76,.38,5.35,1.15,1.59,.77,2.85,1.91,3.78,3.44,.93,1.53,1.4,3.47,1.4,5.82v18.14h-5.99v-16.3c0-2.76-.57-4.68-1.71-5.74-1.14-1.06-2.57-1.6-4.28-1.6-1.23,0-2.43,.29-3.58,.87-1.16,.58-2.12,1.5-2.88,2.77-.77,1.27-1.15,2.97-1.15,5.1v14.9h-5.99Z" fill="#1a3146"/><path d="M167.07,683.62h22.18v2.58h-24.98v-36.96h2.8v34.38Z" fill="#1a3146"/><path d="M213.16,667.77c0-2.43-.65-4.31-1.96-5.66-1.31-1.34-3.17-2.02-5.6-2.02-2.13,0-3.96,.46-5.49,1.37-1.53,.92-2.67,2.44-3.42,4.56l-2.3-1.46c.82-2.2,2.19-3.91,4.12-5.12,1.92-1.21,4.3-1.82,7.14-1.82,2.05,0,3.85,.36,5.4,1.09,1.55,.73,2.75,1.8,3.61,3.22,.86,1.42,1.29,3.19,1.29,5.32v14c0,1.98,.9,2.97,2.69,2.97,.78,0,1.46-.13,2.02-.39l-.17,2.24c-.64,.34-1.46,.5-2.46,.5-.86,0-1.66-.17-2.41-.5-.75-.34-1.35-.9-1.82-1.68-.47-.78-.7-1.85-.7-3.19v-1.51l.78-.06c-.34,1.61-1.07,2.94-2.21,4-1.14,1.06-2.46,1.85-3.95,2.35-1.49,.5-2.99,.76-4.48,.76-1.76,0-3.32-.28-4.7-.84-1.38-.56-2.46-1.37-3.25-2.44-.78-1.06-1.18-2.38-1.18-3.95,0-2.09,.7-3.78,2.1-5.07,1.4-1.29,3.37-2.17,5.91-2.66l11.59-2.3v2.35l-10.19,2.02c-2.2,.45-3.85,1.1-4.93,1.96-1.08,.86-1.62,2.04-1.62,3.53s.58,2.74,1.74,3.61c1.16,.88,2.8,1.32,4.93,1.32,1.08,0,2.18-.15,3.3-.45,1.12-.3,2.16-.77,3.11-1.43,.95-.65,1.71-1.47,2.27-2.46,.56-.99,.84-2.19,.84-3.61v-8.57Z" fill="#1a3146"/><path d="M236.85,686.75c-1.94,0-3.68-.35-5.21-1.06-1.53-.71-2.73-1.82-3.61-3.33-.88-1.51-1.32-3.41-1.32-5.68v-18.48h2.8v17.81c0,2.91,.7,5.02,2.1,6.33,1.4,1.31,3.37,1.96,5.91,1.96,1.49,0,2.85-.26,4.06-.78,1.21-.52,2.25-1.25,3.11-2.18,.86-.93,1.52-2,1.99-3.19,.47-1.19,.7-2.48,.7-3.86v-16.07h2.8v28h-2.52l-.11-5.77c-.82,1.98-2.17,3.53-4.03,4.65-1.87,1.12-4.09,1.68-6.66,1.68Z" fill="#1a3146"/><path d="M260.7,686.2v-28h2.52l.22,7-.45-.39c.52-1.53,1.31-2.83,2.35-3.89,1.04-1.06,2.3-1.88,3.75-2.44,1.46-.56,3.02-.84,4.7-.84,2.09,0,3.94,.39,5.54,1.18,1.6,.78,2.86,1.94,3.78,3.47,.91,1.53,1.37,3.45,1.37,5.77v18.14h-2.8v-17.25c0-3.06-.76-5.3-2.27-6.72-1.51-1.42-3.48-2.13-5.91-2.13-1.76,0-3.39,.4-4.9,1.2-1.51,.8-2.74,1.97-3.7,3.5s-1.43,3.4-1.43,5.6v15.79h-2.8Z" fill="#1a3146"/><path d="M306.06,657.64c1.9,0,3.6,.3,5.1,.9,1.49,.6,2.76,1.46,3.81,2.58,1.04,1.12,1.85,2.48,2.41,4.09l-2.63,1.23c-.6-2.02-1.63-3.58-3.11-4.68-1.48-1.1-3.35-1.65-5.63-1.65-2.05,0-3.86,.48-5.43,1.43s-2.78,2.33-3.64,4.14c-.86,1.81-1.29,3.99-1.29,6.52s.43,4.67,1.29,6.5c.86,1.83,2.05,3.22,3.58,4.17,1.53,.95,3.34,1.43,5.43,1.43,1.57,0,3-.26,4.28-.78,1.29-.52,2.35-1.29,3.19-2.3,.84-1.01,1.39-2.2,1.65-3.58l2.58,.9c-.49,1.72-1.28,3.19-2.38,4.42-1.1,1.23-2.44,2.18-4,2.83s-3.32,.98-5.26,.98c-2.54,0-4.81-.58-6.8-1.74-2-1.16-3.56-2.83-4.68-5.01-1.12-2.18-1.68-4.79-1.68-7.81s.57-5.63,1.71-7.81c1.14-2.18,2.71-3.85,4.7-5.01,2-1.16,4.26-1.74,6.8-1.74Z" fill="#1a3146"/><path d="M325.72,686.2v-40.88h2.8v18.59c.82-1.98,2.15-3.52,3.97-4.62,1.83-1.1,3.94-1.65,6.33-1.65,2.09,0,3.94,.38,5.54,1.15,1.6,.77,2.87,1.92,3.78,3.47,.91,1.55,1.37,3.46,1.37,5.74v18.2h-2.8v-17.3c0-3.02-.76-5.25-2.27-6.69-1.51-1.44-3.48-2.16-5.91-2.16-1.76,0-3.39,.41-4.9,1.23s-2.74,2-3.7,3.53c-.95,1.53-1.43,3.4-1.43,5.6v15.79h-2.8Z" fill="#1a3146"/><path d="M361.16,652.76c-.71,0-1.28-.21-1.71-.64-.43-.43-.64-1-.64-1.71s.21-1.28,.64-1.71,1-.64,1.71-.64,1.28,.21,1.71,.64c.43,.43,.64,1,.64,1.71s-.22,1.28-.64,1.71-1,.64-1.71,.64Zm1.4,5.43v28h-2.8v-28h2.8Z" fill="#1a3146"/><path d="M373.09,686.2v-28h2.52l.22,7-.45-.39c.52-1.53,1.31-2.83,2.35-3.89,1.04-1.06,2.3-1.88,3.75-2.44,1.46-.56,3.02-.84,4.7-.84,2.09,0,3.94,.39,5.54,1.18,1.6,.78,2.87,1.94,3.78,3.47,.91,1.53,1.37,3.45,1.37,5.77v18.14h-2.8v-17.25c0-3.06-.76-5.3-2.27-6.72s-3.48-2.13-5.91-2.13c-1.75,0-3.39,.4-4.9,1.2s-2.74,1.97-3.7,3.5-1.43,3.4-1.43,5.6v15.79h-2.8Z" fill="#1a3146"/><path d="M421.48,683.34c2.76,0,4.93,.58,6.5,1.74,1.57,1.16,2.35,2.71,2.35,4.65,0,1.72-.57,3.21-1.71,4.48-1.14,1.27-2.7,2.26-4.68,2.97-1.98,.71-4.24,1.06-6.78,1.06-4.22,0-7.45-.72-9.69-2.16-2.24-1.44-3.36-3.24-3.36-5.4,0-1.57,.57-2.93,1.71-4.09,1.14-1.16,2.81-1.85,5.01-2.07l-.22,.5c-1.2-.34-2.25-.9-3.16-1.68-.92-.78-1.37-1.9-1.37-3.36,0-1.57,.59-2.85,1.76-3.84,1.18-.99,2.73-1.56,4.68-1.71l2.97,1.01h-1.18c-1.72,.11-3.09,.53-4.12,1.26-1.03,.73-1.54,1.67-1.54,2.83,0,1.27,.49,2.22,1.48,2.86,.99,.63,2.25,.95,3.78,.95h7.56Zm-4.7-25.7c2.2,0,4.15,.38,5.85,1.15,1.7,.77,3.01,1.83,3.95,3.19,.93,1.36,1.4,2.96,1.4,4.79s-.47,3.39-1.4,4.79c-.93,1.4-2.25,2.48-3.95,3.25-1.7,.77-3.65,1.15-5.85,1.15-3.55,0-6.32-.85-8.32-2.55-2-1.7-3-3.91-3-6.64,0-1.83,.48-3.42,1.43-4.79,.95-1.36,2.28-2.43,3.98-3.19,1.7-.76,3.67-1.15,5.91-1.15Zm.39,38.25c2.2,0,4.09-.26,5.66-.78,1.57-.52,2.77-1.22,3.61-2.1,.84-.88,1.26-1.86,1.26-2.94,0-1.31-.57-2.35-1.71-3.14-1.14-.78-2.87-1.18-5.18-1.18h-7.95c-1.76,0-3.21,.41-4.37,1.23-1.16,.82-1.74,1.92-1.74,3.3,0,1.68,.92,3.03,2.77,4.06,1.85,1.03,4.4,1.54,7.64,1.54Zm-.39-35.95c-2.46,0-4.48,.62-6.05,1.88-1.57,1.25-2.35,2.9-2.35,4.96s.78,3.71,2.35,4.98c1.57,1.27,3.58,1.9,6.05,1.9s4.47-.63,6.02-1.9c1.55-1.27,2.32-2.93,2.32-4.98s-.78-3.71-2.32-4.96c-1.55-1.25-3.56-1.88-6.02-1.88Zm13.55-6.89l.67,2.46h-.28c-1.83,0-3.24,.48-4.23,1.43-.99,.95-1.48,2.29-1.48,4l-1.79-.9c0-1.42,.3-2.65,.9-3.7,.6-1.04,1.42-1.86,2.46-2.44,1.04-.58,2.22-.87,3.53-.87h.22Z" fill="#1a3146"/><path d="M464.09,686.75c-2.84,0-5.35-.58-7.53-1.74s-3.72-2.82-4.62-4.98l2.41-1.62c.67,1.87,1.88,3.31,3.61,4.34,1.74,1.03,3.85,1.54,6.36,1.54s4.4-.48,5.8-1.46c1.4-.97,2.1-2.26,2.1-3.86,0-1.08-.35-2.03-1.04-2.83-.69-.8-1.99-1.41-3.89-1.82l-6.55-1.4c-2.69-.56-4.6-1.46-5.74-2.72-1.14-1.25-1.71-2.77-1.71-4.56,0-1.49,.45-2.84,1.34-4.03,.9-1.19,2.14-2.16,3.72-2.88,1.59-.73,3.44-1.09,5.57-1.09,2.8,0,5.11,.55,6.94,1.65,1.83,1.1,3.12,2.75,3.86,4.96l-2.35,1.51c-.56-1.98-1.6-3.42-3.11-4.31-1.51-.9-3.29-1.34-5.35-1.34-1.57,0-2.94,.23-4.12,.7-1.18,.47-2.09,1.1-2.74,1.9-.65,.8-.98,1.73-.98,2.77s.37,2.06,1.12,2.94c.75,.88,2.07,1.52,3.98,1.93l6.72,1.46c2.65,.56,4.5,1.41,5.54,2.55,1.04,1.14,1.57,2.55,1.57,4.23s-.45,3.14-1.34,4.37c-.9,1.23-2.17,2.18-3.81,2.83-1.64,.65-3.57,.98-5.77,.98Z" fill="#1a3146"/><path d="M494.83,657.64c2.61,0,4.92,.58,6.92,1.74,2,1.16,3.56,2.83,4.7,5.01,1.14,2.18,1.71,4.79,1.71,7.81s-.57,5.63-1.71,7.81c-1.14,2.18-2.71,3.86-4.7,5.01-2,1.16-4.3,1.74-6.92,1.74s-4.92-.58-6.92-1.74c-2-1.16-3.57-2.83-4.7-5.01-1.14-2.18-1.71-4.79-1.71-7.81s.57-5.63,1.71-7.81c1.14-2.18,2.71-3.85,4.7-5.01,2-1.16,4.3-1.74,6.92-1.74Zm0,2.41c-2.13,0-3.98,.49-5.54,1.46-1.57,.97-2.79,2.36-3.67,4.17-.88,1.81-1.32,3.99-1.32,6.52s.44,4.67,1.32,6.5c.88,1.83,2.1,3.23,3.67,4.2,1.57,.97,3.42,1.46,5.54,1.46s3.98-.49,5.54-1.46c1.57-.97,2.79-2.37,3.67-4.2,.88-1.83,1.32-3.99,1.32-6.5s-.44-4.71-1.32-6.52c-.88-1.81-2.1-3.2-3.67-4.17-1.57-.97-3.42-1.46-5.54-1.46Z" fill="#1a3146"/><path d="M528.16,657.64c2.61,0,4.92,.58,6.92,1.74,2,1.16,3.56,2.83,4.7,5.01,1.14,2.18,1.71,4.79,1.71,7.81s-.57,5.63-1.71,7.81c-1.14,2.18-2.71,3.86-4.7,5.01-2,1.16-4.3,1.74-6.92,1.74s-4.92-.58-6.92-1.74c-2-1.16-3.57-2.83-4.7-5.01-1.14-2.18-1.71-4.79-1.71-7.81s.57-5.63,1.71-7.81c1.14-2.18,2.71-3.85,4.7-5.01,2-1.16,4.3-1.74,6.92-1.74Zm0,2.41c-2.13,0-3.98,.49-5.54,1.46-1.57,.97-2.79,2.36-3.67,4.17-.88,1.81-1.32,3.99-1.32,6.52s.44,4.67,1.32,6.5c.88,1.83,2.1,3.23,3.67,4.2,1.57,.97,3.42,1.46,5.54,1.46s3.98-.49,5.54-1.46c1.57-.97,2.79-2.37,3.67-4.2,.88-1.83,1.32-3.99,1.32-6.5s-.44-4.71-1.32-6.52c-.88-1.81-2.1-3.2-3.67-4.17-1.57-.97-3.42-1.46-5.54-1.46Z" fill="#1a3146"/><path d="M550.05,686.2v-28h2.52l.22,7-.45-.39c.52-1.53,1.31-2.83,2.35-3.89,1.04-1.06,2.3-1.88,3.75-2.44,1.46-.56,3.02-.84,4.7-.84,2.09,0,3.94,.39,5.54,1.18,1.6,.78,2.87,1.94,3.78,3.47,.91,1.53,1.37,3.45,1.37,5.77v18.14h-2.8v-17.25c0-3.06-.76-5.3-2.27-6.72s-3.48-2.13-5.91-2.13c-1.75,0-3.39,.4-4.9,1.2s-2.74,1.97-3.7,3.5-1.43,3.4-1.43,5.6v15.79h-2.8Z" fill="#1a3146"/><path d="M585.55,681.6c.75,0,1.35,.23,1.82,.7s.7,1.07,.7,1.82-.23,1.35-.7,1.82-1.07,.7-1.82,.7-1.35-.23-1.82-.7c-.47-.47-.7-1.07-.7-1.82s.23-1.35,.7-1.82c.47-.47,1.07-.7,1.82-.7Zm1.46-32.37v17.92l-.34,8.4h-2.24l-.34-8.4v-17.92h2.91Z" fill="#1a3146"/></g></svg>