<?xml version="1.0" encoding="UTF-8"?><svg id="a" xmlns="http://www.w3.org/2000/svg" width="130" height="63" viewBox="0 0 130 63"><rect width="130" height="63" fill="none"/><g><g><path d="M62.73,8.68V.91h2.21v7.88c0,2.12,1.31,3.6,3.23,3.6s3.23-1.36,3.23-3.6V.91h2.2v7.77c0,3.34-2.12,5.67-5.43,5.67s-5.45-2.23-5.45-5.67Z" fill="#fff"/><path d="M85.05,8.92v5.25h-2.18v-5.14c0-1.71-.87-2.63-2.14-2.63-1.13,0-2.27,.87-2.27,2.47v5.3h-2.18V4.72h2.07v1.18c.71-.89,1.76-1.36,2.92-1.36,2.34,0,3.78,1.72,3.78,4.38Z" fill="#fff"/><path d="M87.54,1.92c0-.82,.64-1.51,1.45-1.51s1.45,.69,1.45,1.51-.64,1.52-1.45,1.52-1.45-.71-1.45-1.52Zm.27,12.24V4.72h2.2V14.16h-2.2Z" fill="#fff"/><path d="M93.35,10.95V6.5h-1.42v-1.78h1.49v-1.62l2.11-1.36v2.98h3.29v1.78h-3.29v4.52c0,1.13,.62,1.58,1.33,1.58,.65,0,1.18-.15,1.8-.64l.33,1.65c-.76,.54-1.62,.73-2.54,.73-1.74,0-3.09-1.11-3.09-3.4Z" fill="#fff"/><path d="M109.14,8.82c0,.34-.02,.6-.05,.74l-.15,.15h-6.61c.11,1.85,1.23,2.87,2.6,2.87,.89,0,1.69-.38,2.29-1.43l1.67,.91c-.84,1.51-2.31,2.29-3.96,2.29-3.03,0-4.81-2.31-4.81-4.96,0-2.47,1.92-4.85,4.74-4.85,2.23,0,4.29,1.78,4.29,4.29Zm-6.66-.51h4.58c-.24-1.25-1.13-2.05-2.22-2.05-1.14,0-2.03,.78-2.36,2.05Z" fill="#fff"/><path d="M118.05,0h2.18V14.16h-2.07v-1.23c-.76,.89-1.83,1.42-3.03,1.42-2.51,0-4.39-2-4.39-4.85s2-4.96,4.39-4.96c1.14,0,2.18,.45,2.92,1.23V0Zm.04,9.66v-.44c0-1.94-1.4-2.89-2.56-2.89-1.54,0-2.54,1.4-2.54,3.09s1,3.12,2.54,3.12c1.11,0,2.56-.85,2.56-2.89Z" fill="#fff"/><path d="M71.33,35.94l-1.2-3.1h-5.36l-1.16,3.1h-2.2l5.1-13.26h1.74l5.36,13.26h-2.29Zm-5.9-4.87h4.03l-2.05-5.34-1.98,5.34Z" fill="#fff"/><path d="M84.33,26.97c-.33-.16-.6-.25-.98-.25-.42,0-.82,.16-1.2,.53,.73,.58,1.16,1.36,1.16,2.27,0,1.91-1.67,3.21-4.03,3.21-.6,0-1.16-.09-1.65-.24-.27,.13-.42,.33-.42,.6,0,.4,.27,.64,.85,.71l3.07,.45c1.91,.27,2.91,1.09,2.91,2.6,0,1.89-2.03,3.07-5.03,3.03-2.76-.04-4.41-1.04-4.43-2.72,0-.94,.58-1.73,1.53-2.09-.56-.38-.89-.94-.89-1.6,0-.76,.36-1.38,1-1.8-.6-.54-.94-1.29-.94-2.16,0-1.83,1.78-3.2,4-3.2,.64,0,1.22,.11,1.74,.29,.45-1.16,1.33-1.85,2.34-1.85,.67,0,1.11,.18,1.49,.4l-.51,1.82Zm-6.5,8.7c-.8,.18-1.33,.65-1.33,1.33,0,.85,1.04,1.38,2.65,1.38,1.74,0,2.8-.45,2.8-1.27,0-.58-.45-.91-1.45-1.05l-2.67-.38Zm3.47-6.14c0-1.04-.85-1.69-2.03-1.69s-1.98,.65-1.98,1.69,.8,1.67,2,1.67,2.02-.65,2.02-1.67Z" fill="#fff"/><path d="M94.78,35.67c-.38,.16-.85,.27-1.27,.27-.93,0-1.62-.42-1.91-1.16-.73,.84-1.8,1.34-3.05,1.34-1.83,0-3.01-.93-3.01-2.49-.04-3.65,5.83-2.36,5.83-4.01,0-.98-.74-1.54-1.85-1.54-1,0-1.78,.4-2.23,1.38l-1.63-.78c.78-1.6,2.16-2.36,3.92-2.36,2.54,0,3.94,1.33,3.94,3.7v3.6c0,.4,.24,.58,.53,.58,.2,0,.36-.04,.45-.09l.29,1.56Zm-3.41-3.34v-.85c-1.42,.69-3.67,.44-3.67,1.96,0,.69,.54,1.09,1.36,1.09,1.25,0,2.31-.96,2.31-2.2Z" fill="#fff"/><path d="M96.4,23.71c0-.82,.64-1.51,1.45-1.51s1.45,.69,1.45,1.51-.64,1.52-1.45,1.52-1.45-.71-1.45-1.52Zm.27,12.24v-9.44h2.2v9.44h-2.2Z" fill="#fff"/><path d="M110.54,30.7v5.25h-2.18v-5.14c0-1.71-.87-2.63-2.14-2.63-1.13,0-2.27,.87-2.27,2.47v5.3h-2.18v-9.44h2.07v1.18c.71-.89,1.76-1.36,2.92-1.36,2.34,0,3.78,1.72,3.78,4.38Z" fill="#fff"/><path d="M112.51,34.22l1.38-1.22c.67,1.03,1.54,1.58,2.76,1.58,1.09,0,1.74-.45,1.73-1.14,0-2.11-5.52-.44-5.54-4.18,0-1.69,1.53-2.94,3.63-2.94,1.65,0,2.96,.6,3.79,1.96l-1.47,.98c-.65-1.02-1.29-1.38-2.31-1.38-.94,0-1.63,.42-1.63,1.11,0,1.92,5.56,.38,5.56,4.21,0,1.76-1.56,2.92-3.8,2.92-1.89,0-3.25-.65-4.1-1.91Z" fill="#fff"/><path d="M123.06,32.73v-4.45h-1.42v-1.78h1.49v-1.62l2.11-1.36v2.98h3.29v1.78h-3.29v4.52c0,1.13,.62,1.58,1.33,1.58,.65,0,1.18-.15,1.8-.64l.33,1.65c-.76,.54-1.62,.73-2.54,.73-1.74,0-3.09-1.11-3.09-3.4Z" fill="#fff"/><path d="M70.73,57.73l-3.65-5.76h-2.03v5.76h-2.16v-13.26h5.72c2.87,0,4.38,1.4,4.38,3.67,0,2.11-1.43,3.47-3.63,3.78l3.79,5.81h-2.42Zm-5.68-11.42v3.96h3.36c1.63,0,2.36-.84,2.36-2.03s-.91-1.92-2.38-1.92h-3.34Z" fill="#ff6960"/><path d="M83.86,57.45c-.38,.16-.85,.27-1.27,.27-.93,0-1.62-.42-1.91-1.16-.73,.84-1.8,1.34-3.05,1.34-1.83,0-3.01-.93-3.01-2.49-.04-3.65,5.83-2.36,5.83-4.01,0-.98-.74-1.54-1.85-1.54-1,0-1.78,.4-2.23,1.38l-1.63-.78c.78-1.6,2.16-2.36,3.92-2.36,2.54,0,3.94,1.33,3.94,3.7v3.6c0,.4,.24,.58,.53,.58,.2,0,.36-.04,.45-.09l.29,1.56Zm-3.41-3.34v-.85c-1.42,.69-3.67,.44-3.67,1.96,0,.69,.54,1.09,1.36,1.09,1.25,0,2.31-.96,2.31-2.2Z" fill="#ff6960"/><path d="M95.27,52.95c0,2.87-2,4.96-4.39,4.96-1.22,0-2.31-.51-3.07-1.4v1.22h-2.07v-13.6l2.11-.74v6.14c.76-.89,1.83-1.42,3.03-1.42,2.52,0,4.39,2,4.39,4.85Zm-2.23,.07c0-1.71-1.02-3.12-2.56-3.12-1.09,0-2.56,.85-2.56,2.89v.44c0,1.94,1.4,2.89,2.56,2.89,1.54,0,2.56-1.4,2.56-3.09Z" fill="#ff6960"/><path d="M97.27,45.49c0-.82,.64-1.51,1.45-1.51s1.45,.69,1.45,1.51-.64,1.52-1.45,1.52-1.45-.71-1.45-1.52Zm.27,12.24v-9.44h2.2v9.44h-2.2Z" fill="#ff6960"/><path d="M111.01,52.39c0,.34-.02,.6-.05,.74l-.15,.15h-6.61c.11,1.85,1.23,2.87,2.6,2.87,.89,0,1.69-.38,2.29-1.43l1.67,.91c-.84,1.51-2.31,2.29-3.96,2.29-3.03,0-4.81-2.31-4.81-4.96,0-2.47,1.92-4.85,4.74-4.85,2.23,0,4.29,1.78,4.29,4.29Zm-6.66-.51h4.58c-.24-1.25-1.13-2.05-2.22-2.05-1.14,0-2.03,.78-2.36,2.05Z" fill="#ff6960"/><path d="M112.46,56l1.38-1.22c.67,1.03,1.54,1.58,2.76,1.58,1.09,0,1.74-.45,1.73-1.14,0-2.11-5.52-.44-5.54-4.18,0-1.69,1.53-2.94,3.63-2.94,1.65,0,2.96,.6,3.79,1.96l-1.47,.98c-.65-1.02-1.29-1.38-2.31-1.38-.94,0-1.63,.42-1.63,1.11,0,1.92,5.56,.38,5.56,4.21,0,1.76-1.56,2.92-3.8,2.92-1.89,0-3.25-.65-4.1-1.91Z" fill="#ff6960"/></g><path d="M48.17,5.75c-1.55,0-2.81-1.26-2.81-2.81S46.61,.09,48.17,.09s2.81,1.22,2.81,2.78v.07c0,1.55-1.26,2.81-2.81,2.81Z" fill="#fff"/><path d="M48.17,35.43c-1.55,0-2.81-1.26-2.81-2.81v-.14c0-1.55,1.26-2.81,2.81-2.81s2.81,1.26,2.81,2.81v.14c0,1.55-1.26,2.81-2.81,2.81Zm-45.35,0c-1.55,0-2.81-1.19-2.81-2.74v-.14c0-1.55,1.26-2.81,2.81-2.81s2.81,1.26,2.81,2.81-1.26,2.89-2.81,2.89Zm45.35-9.89c-1.55,0-2.81-1.26-2.81-2.81v-.14c0-1.55,1.26-2.81,2.81-2.81s2.81,1.26,2.81,2.81v.14c0,1.55-1.26,2.81-2.81,2.81Zm-45.35,0c-1.55,0-2.81-1.19-2.81-2.74v-.14c0-1.55,1.26-2.81,2.81-2.81s2.81,1.26,2.81,2.81-1.26,2.89-2.81,2.89Zm0-9.82c-1.55,0-2.81-1.26-2.81-2.81v-.14c0-1.55,1.26-2.81,2.81-2.81s2.81,1.26,2.81,2.81v.14c0,1.55-1.26,2.81-2.81,2.81Zm45.35-.07c-1.55,0-2.81-1.26-2.81-2.81s1.26-2.89,2.81-2.89,2.81,1.19,2.81,2.74v.14c0,1.55-1.26,2.81-2.81,2.81Z" fill="#fff"/><path d="M2.81,5.72c-1.55,0-2.81-1.22-2.81-2.78v-.07C0,1.31,1.26,.05,2.81,.05s2.81,1.26,2.81,2.81-1.26,2.85-2.81,2.85Z" fill="#fff"/><path d="M15.92,59.88c-.35,0-.71-.07-1.06-.22-.01,0-.16-.07-.17-.07-1.42-.62-2.07-2.28-1.45-3.7,.62-1.42,2.28-2.07,3.71-1.45,1.42,.62,2.13,2.29,1.52,3.71-.46,1.07-1.47,1.73-2.55,1.73Z" fill="#ff6960"/><path d="M35.11,59.88c-1.13,0-2.19-.68-2.62-1.79-.57-1.45,.15-3.08,1.6-3.64,1.43-.56,3.1,.1,3.69,1.52s0,3.01-1.41,3.63c-.03,.01-.2,.08-.23,.1-.34,.13-.68,.19-1.02,.19Z" fill="#ff6960"/><path d="M7.98,54.05c-.77,0-1.52-.32-2.07-.96-.02-.02-.13-.16-.15-.18-.97-1.22-.76-2.99,.46-3.95,1.22-.96,2.99-.76,3.95,.46,.95,1.2,.81,3.01-.38,3.98-.54,.44-1.18,.66-1.82,.66Z" fill="#ff6960"/><path d="M42.96,54c-.61,0-1.23-.2-1.74-.61-1.21-.97-1.43-2.7-.47-3.91,.96-1.22,2.78-1.48,4-.51,1.22,.96,1.47,2.68,.5,3.9,0,0-.06,.07-.06,.08-.56,.69-1.39,1.06-2.23,1.06Z" fill="#ff6960"/><path d="M25.53,61.71c-1.55,0-2.81-1.22-2.81-2.78v-.07c0-1.55,1.26-2.81,2.81-2.81s2.81,1.26,2.81,2.81-1.26,2.85-2.81,2.85Z" fill="#ff6960"/><path d="M3.65,45.18c-1.55,0-2.81-1.22-2.81-2.78v-.07c0-1.55,1.26-2.81,2.81-2.81s2.81,1.26,2.81,2.81-1.26,2.85-2.81,2.85Z" fill="#ff6960"/><path d="M47.31,45.25c-.24,0-.49-.03-.73-.1-1.5-.4-2.39-1.95-1.99-3.45,.37-1.51,1.89-2.47,3.41-2.11,1.51,.37,2.45,1.85,2.08,3.36l-.05,.21c-.34,1.26-1.47,2.08-2.72,2.08Z" fill="#ff6960"/></g></svg>